<?xml version="1.0" encoding="UTF-8" standalone="no"?>
<!-- Created with Inkscape (http://www.inkscape.org/) -->
<svg
   xmlns:svg="http://www.w3.org/2000/svg"
   xmlns="http://www.w3.org/2000/svg"
   version="1.0"
   width="566.92914"
   height="531.49603"
   id="svg7129">
  <defs
     id="defs7131">
  
  
 
   
   
  </defs>
  <g
     id="layer1">
    <g
       id="g8033">
      <polygon
         points="500000,14299900 15500000,14299900 15500000,700060 500000,700060 500000,14299900 "
         transform="matrix(3.543307e-5,0,0,3.543307e-5,9.091797e-6,7.000188e-4)"
         style="fill:red;fill-rule:evenodd"
         id="_76258216" />
      <path
         d="M 31.516662,233.86215 L 67.356504,233.86215 L 67.356504,148.87274 L 68.701543,148.87274 L 85.041857,233.86215 L 118.63737,233.86215 L 98.036581,143.342 L 115.94729,68.034675 L 82.359574,68.034675 L 68.701543,143.342 L 67.356504,143.342 L 67.356504,68.034675 L 31.516662,68.034675 L 31.516662,233.86215 L 31.516662,233.86215 z M 124.46079,233.86215 L 158.04851,233.86215 L 158.04851,154.3957 C 158.04851,147.02597 158.50205,144.49641 160.06465,141.73121 C 161.40969,139.43018 163.20048,138.27578 165.67335,138.27578 C 168.12461,138.27578 169.46965,139.1942 173.73331,142.65211 L 173.73331,104.87869 C 170.3693,103.03971 168.79855,102.57802 166.56201,102.57802 C 162.08363,102.57802 159.17599,105.11538 154.92296,112.02058 L 153.79548,113.86771 L 153.79548,104.87869 L 124.46079,104.87869 L 124.46079,233.86215 z M 214.04374,200.22873 L 214.04374,137.3577 C 214.04374,131.13424 216.50563,127.91231 220.9865,127.91231 C 225.68528,127.91231 227.47323,130.67751 227.47323,137.3577 L 227.47323,200.69325 C 227.47323,208.9814 226.35638,210.82888 220.9865,210.82888 C 215.60599,210.82888 214.04374,208.52503 214.04374,200.22873 z M 261.06874,195.85239 L 261.06874,142.87782 C 261.06874,117.32314 246.28607,102.57802 220.53012,102.57802 C 195.23374,102.57802 180.44823,117.55133 180.44823,143.11416 L 180.44823,194.93432 C 180.44823,205.98802 182.01083,213.59408 185.37201,219.11384 C 192.31477,230.63207 203.96481,236.39136 219.85902,236.39136 C 236.20713,236.39136 249.20185,229.94219 255.91642,218.88849 C 259.49799,212.90136 261.06874,206.224 261.06874,195.85239 z M 272.26453,233.86215 L 305.86004,233.86215 L 305.86004,129.5231 C 308.54232,126.304 311.01236,124.92141 313.2489,124.92141 C 315.93933,124.92141 318.40122,126.99389 318.84697,129.75944 C 319.07232,131.37022 319.29272,134.36396 319.29272,138.50148 L 319.29272,233.86215 L 352.88823,233.86215 L 352.88823,137.81125 C 352.88823,128.83322 352.67032,125.83948 351.99673,122.39219 C 351.32563,120.08054 350.4235,117.77952 349.3063,115.7042 C 344.59973,107.41605 336.31193,102.57802 326.46118,102.57802 C 317.95547,102.57802 311.90351,105.80774 305.86004,113.17499 L 305.86004,104.87869 L 272.26453,104.87869 L 272.26453,233.86215 z M 397.45098,153.24908 L 397.45098,138.04794 C 397.45098,130.90605 399.69567,127.6866 404.6198,127.6866 C 409.54642,127.6866 411.56291,130.67751 411.56291,138.50148 L 411.56291,153.24908 L 397.45098,153.24908 z M 444.70488,176.28554 L 444.70488,136.43644 C 444.70488,117.0868 427.91102,102.34983 405.5113,102.34983 C 380.65748,102.34983 364.08118,118.24121 364.08118,142.42392 L 364.08118,195.16251 C 364.08118,221.65404 378.64098,236.16282 404.84799,236.16282 C 431.94614,236.16282 442.46834,223.72688 444.70488,196.5451 L 444.93307,193.78806 L 444.70488,190.09381 L 411.11752,190.09381 L 411.3372,200.69325 L 411.11752,202.99428 C 411.11752,208.75321 409.32921,210.60034 404.4026,210.60034 C 399.46748,210.60034 397.68768,208.0605 397.68768,200.91861 L 397.68768,176.28554 L 444.70488,176.28554 z M 455.90882,233.86215 L 489.49618,233.86215 L 489.49618,129.5231 C 492.18626,126.304 494.6485,124.92141 496.89283,124.92141 C 499.57228,124.92141 502.037,126.99389 502.4909,129.75944 C 502.70811,131.37022 502.9363,134.36396 502.9363,138.50148 L 502.9363,233.86215 L 536.53216,233.86215 L 536.53216,137.81125 C 536.53216,128.83322 536.30397,125.83948 535.63252,122.39219 C 534.95858,120.08054 534.06992,117.77952 532.94244,115.7042 C 528.24366,107.41605 519.95551,102.57802 510.10511,102.57802 C 501.59126,102.57802 495.54779,105.80774 489.49618,113.17499 L 489.49618,104.87869 L 455.90882,104.87869 L 455.90882,233.86215 z M 30.191111,425.19825 L 90.3267,425.19825 L 90.3267,390.41856 L 70.284338,390.41856 L 90.3267,259.36829 L 30.191111,259.36829 L 30.191111,293.2214 L 49.372094,293.2214 L 30.191111,425.19825 L 30.191111,425.19825 z M 133.44272,344.58518 L 133.44272,329.38368 C 133.44272,322.24179 135.59068,319.02022 140.33729,319.02022 C 145.08178,319.02022 147.0228,322.01361 147.0228,329.84821 L 147.0228,344.58518 L 133.44272,344.58518 z M 178.92426,367.6188 L 178.92426,327.7729 C 178.92426,308.4229 162.75615,293.68593 141.19938,293.68593 C 117.27461,293.68593 101.32371,309.57766 101.32371,333.76002 L 101.32371,386.50675 C 101.32371,412.9873 115.33075,427.49927 140.55485,427.49927 C 166.63819,427.49927 176.76532,415.06297 178.92426,387.88971 L 179.14146,385.1238 L 178.92426,381.4377 L 146.58768,381.4377 L 146.80524,392.02687 L 146.58768,394.33038 C 146.58768,400.09746 144.86422,401.93396 140.12788,401.93396 C 135.3841,401.93396 133.66028,399.3966 133.66028,392.26569 L 133.66028,367.6188 L 178.92426,367.6188 z M 189.70406,268.34916 C 189.70406,277.56353 197.02559,284.93325 205.65178,284.93325 C 214.4902,284.93325 221.60233,277.09865 221.60233,267.43073 C 221.60233,257.98534 214.4902,250.15392 205.65178,250.15392 C 196.81583,250.15392 189.48367,258.21353 189.70406,268.34916 z M 189.70406,425.19825 L 222.0293,425.19825 L 222.0293,296.22329 L 189.70406,296.22329 L 189.70406,425.19825 z M 228.49725,321.56042 L 236.04697,321.56042 L 236.04697,425.19825 L 268.37292,425.19825 L 268.37292,321.56042 L 275.92229,321.56042 L 275.92229,296.22329 L 268.37292,296.22329 L 268.37292,269.95747 L 236.04697,269.95747 L 236.04697,296.22329 L 228.49725,296.22329 L 228.49725,321.56042 z M 282.39024,296.22329 L 282.39024,388.57144 C 282.39024,412.9873 296.82673,427.49927 320.96906,427.49927 C 345.54862,427.49927 359.99043,413.45183 359.99043,389.73683 L 359.99043,296.22329 L 327.65705,296.22329 L 327.65705,391.80152 C 327.65705,395.94931 327.43949,397.33227 326.79496,398.71451 C 325.49563,400.77955 323.33705,402.16215 321.18662,402.16215 C 319.02768,402.16215 316.44213,400.77955 315.5804,398.94305 C 314.71866,397.5601 314.71866,396.63955 314.71866,391.80152 L 314.71866,296.22329 L 282.39024,296.22329 z M 370.76209,425.19825 L 403.09583,425.19825 L 403.09583,320.8592 C 405.68138,317.63727 408.04972,316.25502 410.21079,316.25502 C 412.79634,316.25502 415.16433,318.33034 415.59945,321.09553 C 415.81665,322.70668 416.02642,325.69758 416.02642,329.84821 L 416.02642,425.19825 L 448.36264,425.19825 L 448.36264,329.1555 C 448.36264,320.17746 448.14508,317.18408 447.50055,313.72581 C 446.85638,311.42479 445.99429,309.11313 444.91535,307.0403 C 440.38559,298.75215 432.41173,293.91128 422.93161,293.91128 C 414.73736,293.91128 408.92173,297.14136 403.09583,304.51144 L 403.09583,296.22329 L 370.76209,296.22329 L 370.76209,425.19825 z M 504.40606,321.09553 L 504.40606,393.18376 C 504.40606,395.71333 500.74937,398.25034 497.07389,398.25034 C 493.19964,398.25034 491.47582,395.48514 491.47582,389.50014 L 491.47582,323.16837 C 491.47582,317.63727 493.62626,314.64388 497.2911,314.64388 C 500.31425,314.64388 504.40606,317.18408 504.40606,321.09553 z M 457.63334,438.32443 C 470.78114,446.15904 477.45815,448.22337 491.25862,448.22337 C 510.87401,448.22337 526.18039,440.85364 532.8574,427.9638 C 536.08748,421.97667 536.7398,417.60034 536.7398,404.9277 L 536.7398,296.22329 L 504.40606,296.22329 L 504.40606,306.34794 C 498.58795,297.60589 492.54697,293.91128 483.70854,293.91128 C 468.62256,293.91128 459.1396,306.82309 459.1396,327.7729 L 459.1396,390.19038 C 459.1396,406.3103 470.34638,418.7466 484.78819,418.7466 C 492.76488,418.7466 498.79771,415.29116 504.40606,407.46719 C 504.40606,409.76856 504.62362,411.60471 504.62362,412.52561 C 504.62362,419.21112 503.10673,421.73998 498.58795,424.50553 C 495.35008,426.34451 491.47582,427.49927 487.37622,427.49927 C 484.35271,427.49927 481.34055,427.03439 478.755,425.88813 L 466.89874,421.0501 L 457.63334,438.32443 z "
         style="fill:white;fill-opacity:1;fill-rule:evenodd"
         id="_106602944" />
    </g>
  </g>
</svg>
